<svg id="visual" viewBox="0 0 900 600" width="900" height="600" xmlns="http://www.w3.org/2000/svg" xmlns:xlink="http://www.w3.org/1999/xlink" version="1.1"><path d="M0 97L13.7 89C27.3 81 54.7 65 82 56C109.3 47 136.7 45 163.8 46C191 47 218 51 245.2 57C272.3 63 299.7 71 327 69C354.3 67 381.7 55 409 48C436.3 41 463.7 39 491 48C518.3 57 545.7 77 573 80C600.3 83 627.7 69 654.8 69C682 69 709 83 736.2 81C763.3 79 790.7 61 818 55C845.3 49 872.7 55 886.3 58L900 61L900 0L886.3 0C872.7 0 845.3 0 818 0C790.7 0 763.3 0 736.2 0C709 0 682 0 654.8 0C627.7 0 600.3 0 573 0C545.7 0 518.3 0 491 0C463.7 0 436.3 0 409 0C381.7 0 354.3 0 327 0C299.7 0 272.3 0 245.2 0C218 0 191 0 163.8 0C136.7 0 109.3 0 82 0C54.7 0 27.3 0 13.7 0L0 0Z" fill="#77f9e3"></path><path d="M0 193L13.7 200C27.3 207 54.7 221 82 226C109.3 231 136.7 227 163.8 227C191 227 218 231 245.2 236C272.3 241 299.7 247 327 246C354.3 245 381.7 237 409 232C436.3 227 463.7 225 491 218C518.3 211 545.7 199 573 209C600.3 219 627.7 251 654.8 262C682 273 709 263 736.2 259C763.3 255 790.7 257 818 254C845.3 251 872.7 243 886.3 239L900 235L900 59L886.3 56C872.7 53 845.3 47 818 53C790.7 59 763.3 77 736.2 79C709 81 682 67 654.8 67C627.7 67 600.3 81 573 78C545.7 75 518.3 55 491 46C463.7 37 436.3 39 409 46C381.7 53 354.3 65 327 67C299.7 69 272.3 61 245.2 55C218 49 191 45 163.8 44C136.7 43 109.3 45 82 54C54.7 63 27.3 79 13.7 87L0 95Z" fill="#53f7dc"></path><path d="M0 295L13.7 309C27.3 323 54.7 351 82 362C109.3 373 136.7 367 163.8 370C191 373 218 385 245.2 384C272.3 383 299.7 369 327 354C354.3 339 381.7 323 409 330C436.3 337 463.7 367 491 364C518.3 361 545.7 325 573 318C600.3 311 627.7 333 654.8 342C682 351 709 347 736.2 353C763.3 359 790.7 375 818 381C845.3 387 872.7 383 886.3 381L900 379L900 233L886.3 237C872.7 241 845.3 249 818 252C790.7 255 763.3 253 736.2 257C709 261 682 271 654.8 260C627.7 249 600.3 217 573 207C545.7 197 518.3 209 491 216C463.7 223 436.3 225 409 230C381.7 235 354.3 243 327 244C299.7 245 272.3 239 245.2 234C218 229 191 225 163.8 225C136.7 225 109.3 229 82 224C54.7 219 27.3 205 13.7 198L0 191Z" fill="#00f5d4"></path><path d="M0 415L13.7 417C27.3 419 54.7 423 82 435C109.3 447 136.7 467 163.8 478C191 489 218 491 245.2 484C272.3 477 299.7 461 327 443C354.3 425 381.7 405 409 407C436.3 409 463.7 433 491 434C518.3 435 545.7 413 573 415C600.3 417 627.7 443 654.8 451C682 459 709 449 736.2 457C763.3 465 790.7 491 818 500C845.3 509 872.7 501 886.3 497L900 493L900 377L886.3 379C872.7 381 845.3 385 818 379C790.7 373 763.3 357 736.2 351C709 345 682 349 654.8 340C627.7 331 600.3 309 573 316C545.7 323 518.3 359 491 362C463.7 365 436.3 335 409 328C381.7 321 354.3 337 327 352C299.7 367 272.3 381 245.2 382C218 383 191 371 163.8 368C136.7 365 109.3 371 82 360C54.7 349 27.3 321 13.7 307L0 293Z" fill="#00d4b8"></path><path d="M0 601L13.7 601C27.3 601 54.7 601 82 601C109.3 601 136.7 601 163.8 601C191 601 218 601 245.2 601C272.3 601 299.7 601 327 601C354.3 601 381.7 601 409 601C436.3 601 463.7 601 491 601C518.3 601 545.7 601 573 601C600.3 601 627.7 601 654.8 601C682 601 709 601 736.2 601C763.3 601 790.7 601 818 601C845.3 601 872.7 601 886.3 601L900 601L900 491L886.3 495C872.7 499 845.3 507 818 498C790.7 489 763.3 463 736.2 455C709 447 682 457 654.8 449C627.7 441 600.3 415 573 413C545.7 411 518.3 433 491 432C463.7 431 436.3 407 409 405C381.7 403 354.3 423 327 441C299.7 459 272.3 475 245.2 482C218 489 191 487 163.8 476C136.7 465 109.3 445 82 433C54.7 421 27.3 417 13.7 415L0 413Z" fill="#00b39c"></path></svg>