<svg id="visual" viewBox="0 0 900 600" width="900" height="600" xmlns="http://www.w3.org/2000/svg" xmlns:xlink="http://www.w3.org/1999/xlink" version="1.1"><path d="M0 49L13.7 54C27.3 59 54.7 69 82 77C109.3 85 136.7 91 163.8 88C191 85 218 73 245.2 65C272.3 57 299.7 53 327 53C354.3 53 381.7 57 409 56C436.3 55 463.7 49 491 49C518.3 49 545.7 55 573 54C600.3 53 627.7 45 654.8 46C682 47 709 57 736.2 60C763.3 63 790.7 59 818 62C845.3 65 872.7 75 886.3 80L900 85L900 0L886.3 0C872.7 0 845.3 0 818 0C790.7 0 763.3 0 736.2 0C709 0 682 0 654.8 0C627.7 0 600.3 0 573 0C545.7 0 518.3 0 491 0C463.7 0 436.3 0 409 0C381.7 0 354.3 0 327 0C299.7 0 272.3 0 245.2 0C218 0 191 0 163.8 0C136.7 0 109.3 0 82 0C54.7 0 27.3 0 13.7 0L0 0Z" fill="#ff6e60"></path><path d="M0 145L13.7 167C27.3 189 54.7 233 82 249C109.3 265 136.7 253 163.8 253C191 253 218 265 245.2 278C272.3 291 299.7 305 327 312C354.3 319 381.7 319 409 298C436.3 277 463.7 235 491 210C518.3 185 545.7 177 573 196C600.3 215 627.7 261 654.8 259C682 257 709 207 736.2 200C763.3 193 790.7 229 818 248C845.3 267 872.7 269 886.3 270L900 271L900 83L886.3 78C872.7 73 845.3 63 818 60C790.7 57 763.3 61 736.2 58C709 55 682 45 654.8 44C627.7 43 600.3 51 573 52C545.7 53 518.3 47 491 47C463.7 47 436.3 53 409 54C381.7 55 354.3 51 327 51C299.7 51 272.3 55 245.2 63C218 71 191 83 163.8 86C136.7 89 109.3 83 82 75C54.7 67 27.3 57 13.7 52L0 47Z" fill="#ff4938"></path><path d="M0 409L13.7 403C27.3 397 54.7 385 82 384C109.3 383 136.7 393 163.8 408C191 423 218 443 245.2 446C272.3 449 299.7 435 327 428C354.3 421 381.7 421 409 413C436.3 405 463.7 389 491 384C518.3 379 545.7 385 573 398C600.3 411 627.7 431 654.8 431C682 431 709 411 736.2 402C763.3 393 790.7 395 818 400C845.3 405 872.7 413 886.3 417L900 421L900 269L886.3 268C872.7 267 845.3 265 818 246C790.7 227 763.3 191 736.2 198C709 205 682 255 654.8 257C627.7 259 600.3 213 573 194C545.7 175 518.3 183 491 208C463.7 233 436.3 275 409 296C381.7 317 354.3 317 327 310C299.7 303 272.3 289 245.2 276C218 263 191 251 163.8 251C136.7 251 109.3 263 82 247C54.7 231 27.3 187 13.7 165L0 143Z" fill="#ff0000"></path><path d="M0 481L13.7 476C27.3 471 54.7 461 82 457C109.3 453 136.7 455 163.8 465C191 475 218 493 245.2 507C272.3 521 299.7 531 327 535C354.3 539 381.7 537 409 526C436.3 515 463.7 495 491 488C518.3 481 545.7 487 573 493C600.3 499 627.7 505 654.8 501C682 497 709 483 736.2 476C763.3 469 790.7 469 818 479C845.3 489 872.7 509 886.3 519L900 529L900 419L886.3 415C872.7 411 845.3 403 818 398C790.7 393 763.3 391 736.2 400C709 409 682 429 654.8 429C627.7 429 600.3 409 573 396C545.7 383 518.3 377 491 382C463.7 387 436.3 403 409 411C381.7 419 354.3 419 327 426C299.7 433 272.3 447 245.2 444C218 441 191 421 163.8 406C136.7 391 109.3 381 82 382C54.7 383 27.3 395 13.7 401L0 407Z" fill="#de000b"></path><path d="M0 601L13.7 601C27.3 601 54.7 601 82 601C109.3 601 136.7 601 163.8 601C191 601 218 601 245.2 601C272.3 601 299.7 601 327 601C354.3 601 381.7 601 409 601C436.3 601 463.7 601 491 601C518.3 601 545.7 601 573 601C600.3 601 627.7 601 654.8 601C682 601 709 601 736.2 601C763.3 601 790.7 601 818 601C845.3 601 872.7 601 886.3 601L900 601L900 527L886.3 517C872.7 507 845.3 487 818 477C790.7 467 763.3 467 736.2 474C709 481 682 495 654.8 499C627.7 503 600.3 497 573 491C545.7 485 518.3 479 491 486C463.7 493 436.3 513 409 524C381.7 535 354.3 537 327 533C299.7 529 272.3 519 245.2 505C218 491 191 473 163.8 463C136.7 453 109.3 451 82 455C54.7 459 27.3 469 13.7 474L0 479Z" fill="#bd0010"></path></svg>