<svg id="visual" viewBox="0 0 900 600" width="900" height="600" xmlns="http://www.w3.org/2000/svg" xmlns:xlink="http://www.w3.org/1999/xlink" version="1.1"><path d="M0 103L13.7 100C27.3 97 54.7 91 82 84C109.3 77 136.7 69 163.8 65C191 61 218 61 245.2 67C272.3 73 299.7 85 327 84C354.3 83 381.7 69 409 60C436.3 51 463.7 47 491 55C518.3 63 545.7 83 573 86C600.3 89 627.7 75 654.8 72C682 69 709 77 736.2 81C763.3 85 790.7 85 818 86C845.3 87 872.7 89 886.3 90L900 91L900 0L886.3 0C872.7 0 845.3 0 818 0C790.7 0 763.3 0 736.2 0C709 0 682 0 654.8 0C627.7 0 600.3 0 573 0C545.7 0 518.3 0 491 0C463.7 0 436.3 0 409 0C381.7 0 354.3 0 327 0C299.7 0 272.3 0 245.2 0C218 0 191 0 163.8 0C136.7 0 109.3 0 82 0C54.7 0 27.3 0 13.7 0L0 0Z" fill="#67b7fc"></path><path d="M0 295L13.7 277C27.3 259 54.7 223 82 199C109.3 175 136.7 163 163.8 164C191 165 218 179 245.2 191C272.3 203 299.7 213 327 218C354.3 223 381.7 223 409 217C436.3 211 463.7 199 491 208C518.3 217 545.7 247 573 257C600.3 267 627.7 257 654.8 245C682 233 709 219 736.2 215C763.3 211 790.7 217 818 233C845.3 249 872.7 275 886.3 288L900 301L900 89L886.3 88C872.7 87 845.3 85 818 84C790.7 83 763.3 83 736.2 79C709 75 682 67 654.8 70C627.7 73 600.3 87 573 84C545.7 81 518.3 61 491 53C463.7 45 436.3 49 409 58C381.7 67 354.3 81 327 82C299.7 83 272.3 71 245.2 65C218 59 191 59 163.8 63C136.7 67 109.3 75 82 82C54.7 89 27.3 95 13.7 98L0 101Z" fill="#44a7fb"></path><path d="M0 367L13.7 373C27.3 379 54.7 391 82 396C109.3 401 136.7 399 163.8 403C191 407 218 417 245.2 421C272.3 425 299.7 423 327 420C354.3 417 381.7 413 409 400C436.3 387 463.7 365 491 370C518.3 375 545.7 407 573 408C600.3 409 627.7 379 654.8 387C682 395 709 441 736.2 441C763.3 441 790.7 395 818 390C845.3 385 872.7 421 886.3 439L900 457L900 299L886.3 286C872.7 273 845.3 247 818 231C790.7 215 763.3 209 736.2 213C709 217 682 231 654.8 243C627.7 255 600.3 265 573 255C545.7 245 518.3 215 491 206C463.7 197 436.3 209 409 215C381.7 221 354.3 221 327 216C299.7 211 272.3 201 245.2 189C218 177 191 163 163.8 162C136.7 161 109.3 173 82 197C54.7 221 27.3 257 13.7 275L0 293Z" fill="#0097fa"></path><path d="M0 493L13.7 498C27.3 503 54.7 513 82 510C109.3 507 136.7 491 163.8 492C191 493 218 511 245.2 525C272.3 539 299.7 549 327 544C354.3 539 381.7 519 409 506C436.3 493 463.7 487 491 489C518.3 491 545.7 501 573 501C600.3 501 627.7 491 654.8 499C682 507 709 533 736.2 534C763.3 535 790.7 511 818 511C845.3 511 872.7 535 886.3 547L900 559L900 455L886.3 437C872.7 419 845.3 383 818 388C790.7 393 763.3 439 736.2 439C709 439 682 393 654.8 385C627.7 377 600.3 407 573 406C545.7 405 518.3 373 491 368C463.7 363 436.3 385 409 398C381.7 411 354.3 415 327 418C299.7 421 272.3 423 245.2 419C218 415 191 405 163.8 401C136.7 397 109.3 399 82 394C54.7 389 27.3 377 13.7 371L0 365Z" fill="#0083d8"></path><path d="M0 601L13.7 601C27.3 601 54.7 601 82 601C109.3 601 136.7 601 163.8 601C191 601 218 601 245.2 601C272.3 601 299.7 601 327 601C354.3 601 381.7 601 409 601C436.3 601 463.7 601 491 601C518.3 601 545.7 601 573 601C600.3 601 627.7 601 654.8 601C682 601 709 601 736.2 601C763.3 601 790.7 601 818 601C845.3 601 872.7 601 886.3 601L900 601L900 557L886.3 545C872.7 533 845.3 509 818 509C790.7 509 763.3 533 736.2 532C709 531 682 505 654.8 497C627.7 489 600.3 499 573 499C545.7 499 518.3 489 491 487C463.7 485 436.3 491 409 504C381.7 517 354.3 537 327 542C299.7 547 272.3 537 245.2 523C218 509 191 491 163.8 490C136.7 489 109.3 505 82 508C54.7 511 27.3 501 13.7 496L0 491Z" fill="#006fb7"></path></svg>