<svg id="Capa_1" enable-background="new 0 0 512 512" height="512" viewBox="0 0 512 512" width="512" xmlns="http://www.w3.org/2000/svg"><g><g><g><g><path d="m274.743 255.719v-139.975c0-1.915-1.553-3.468-3.468-3.468h-36.248c-1.915 0-3.468 1.553-3.468 3.468v110.762c16.1 7.162 30.697 17.104 43.184 29.213z" fill="#05e39c"/><path d="m248.214 235.212v-119.468c0-1.915 1.553-3.468 3.468-3.468h-16.654c-1.915 0-3.468 1.553-3.468 3.468v110.762c5.751 2.558 11.313 5.466 16.654 8.706z" fill="#0ed290"/><path d="m340.597 359.284v-206.834c0-1.915-1.553-3.468-3.468-3.468h-36.248c-1.915 0-3.468 1.553-3.468 3.468v131.297c13.773 22.004 21.934 47.853 22.504 75.537z" fill="#01d0fb"/><path d="m314.145 321.129v-168.679c0-1.915 1.553-3.468 3.468-3.468h-16.731c-1.915 0-3.468 1.553-3.468 3.468v131.297c7.203 11.506 12.877 24.06 16.731 37.382z" fill="#01c0fa"/><path d="m406.452 359.284v-164.73c0-1.915-1.553-3.468-3.468-3.468h-36.248c-1.915 0-3.468 1.553-3.468 3.468v164.73z" fill="#fed402"/><path d="m380.077 359.284v-164.73c0-1.915 1.553-3.468 3.468-3.468h-16.808c-1.915 0-3.468 1.553-3.468 3.468v164.73z" fill="#fac600"/><path d="m472.306 359.284v-212.232c0-1.915-1.553-3.468-3.468-3.468h-36.248c-1.915 0-3.468 1.553-3.468 3.468v212.232z" fill="#01d0fb"/><path d="m446.008 359.284v-212.232c0-1.915 1.553-3.468 3.468-3.468h-16.885c-1.915 0-3.468 1.553-3.468 3.468v212.232z" fill="#01c0fa"/></g><g><g fill="#7ca1b1"><path d="m234.155 29.531-45.544 44.051c4.71 2.113 8.491 5.934 10.532 10.682l45.455-43.965c-4.688-2.152-8.442-5.999-10.443-10.768z"/><path d="m432.003 63.602-39.193 40.478c4.768 2.003 8.612 5.759 10.762 10.449l39.193-40.478c-4.768-2.003-8.612-5.759-10.762-10.449z"/><path d="m374.271 105.445-101.362-78.098c-1.463 5.014-4.786 9.229-9.168 11.872l101.362 78.099c1.463-5.015 4.785-9.23 9.168-11.873z"/></g><g><circle cx="180.218" cy="92.366" fill="#fd5426" r="21.592"/></g><g><path d="m176.101 92.366c0-8.812 5.286-16.378 12.854-19.734-2.673-1.186-5.625-1.857-8.737-1.857-11.925 0-21.592 9.667-21.592 21.592s9.667 21.592 21.592 21.592c3.113 0 6.064-.672 8.737-1.857-7.568-3.358-12.854-10.924-12.854-19.736z" fill="#ef4424"/></g><g><circle cx="253.151" cy="21.592" fill="#05e39c" r="21.592"/></g><g><path d="m248.214 21.592c0-8.973 5.475-16.664 13.265-19.923-2.564-1.073-5.376-1.669-8.328-1.669-11.925 0-21.592 9.667-21.592 21.592s9.667 21.592 21.592 21.592c2.952 0 5.764-.596 8.327-1.668-7.79-3.261-13.264-10.952-13.264-19.924z" fill="#0ed290"/></g><g><circle cx="384.86" cy="123.072" fill="#fd5426" r="21.592"/></g><g><path d="m380.077 123.072c0-8.944 5.438-16.617 13.188-19.895-2.583-1.092-5.423-1.697-8.404-1.697-11.925 0-21.592 9.667-21.592 21.592s9.667 21.592 21.592 21.592c2.981 0 5.821-.604 8.404-1.697-7.75-3.278-13.188-10.951-13.188-19.895z" fill="#ef4424"/></g><g><circle cx="450.715" cy="55.059" fill="#fed402" r="21.592"/></g><g><path d="m446.008 55.059c0-8.928 5.42-16.589 13.149-19.876-2.594-1.103-5.446-1.715-8.443-1.715-11.925 0-21.592 9.667-21.592 21.592s9.667 21.592 21.592 21.592c2.996 0 5.849-.612 8.443-1.715-7.728-3.289-13.149-10.95-13.149-19.878z" fill="#fac600"/></g></g></g><path d="m493.898 358.284h-173.983c.037 1.359.059 2.723.059 4.091 0 3.669-.139 7.306-.402 10.909h174.327c4.142 0 7.5-3.358 7.5-7.5s-3.359-7.5-7.501-7.5z" fill="#7ca1b1"/></g><g><g><g><path d="m205.144 216.582c.45 3.801.683 7.668.683 11.501 0 3.939-.241 7.917-.716 11.819-.276 2.265-2.226 3.973-4.536 3.973h-19.957c-2.888 0-5.411 1.875-6.279 4.667-1.23 3.956-2.829 7.818-4.751 11.478-1.36 2.589-.902 5.701 1.14 7.743l14.104 14.105c1.634 1.634 1.805 4.222.397 6.02-4.87 6.221-10.492 11.843-16.71 16.709-.795.623-1.752.951-2.768.951-1.228 0-2.383-.479-3.252-1.348l-14.104-14.104c-1.232-1.232-2.876-1.911-4.628-1.911-1.077 0-2.154.267-3.115.771-3.662 1.923-7.523 3.521-11.478 4.751-2.791.868-4.666 3.392-4.666 6.279v19.957c0 2.31-1.708 4.26-3.973 4.536-3.903.475-7.879.716-11.819.716s-7.917-.241-11.819-.716c-2.265-.276-3.973-2.226-3.973-4.536v-19.957c0-2.888-1.875-5.411-4.667-6.279-3.956-1.23-7.817-2.828-11.478-4.751-.961-.505-2.038-.771-3.115-.771-1.752 0-3.396.679-4.628 1.911l-14.106 14.104c-.869.869-2.024 1.348-3.252 1.348-1.016 0-1.973-.329-2.768-.951-3.907-3.058-7.577-6.414-10.974-10.028-10.366 20.355-16.214 43.397-16.214 67.806 0 82.635 66.99 149.625 149.626 149.625s149.625-66.99 149.625-149.625c0-71.014-49.471-130.473-115.829-145.793z" fill="#fd5426"/><g><path d="m45 362.375c0-21.886 4.714-42.666 13.159-61.403l-3.229 3.228c-.869.869-2.024 1.348-3.252 1.348-1.016 0-1.973-.329-2.768-.951-3.907-3.058-7.577-6.414-10.974-10.028-10.366 20.355-16.214 43.397-16.214 67.806 0 82.635 66.99 149.625 149.626 149.625 3.882 0 7.724-.165 11.531-.457-77.145-5.991-137.879-70.486-137.879-149.168z" fill="#ef4424"/></g><path d="m175.303 246.607c-.414.576-.744 1.224-.964 1.934-1.23 3.956-2.829 7.818-4.751 11.478-1.36 2.589-.902 5.701 1.14 7.743l14.104 14.105c1.634 1.634 1.805 4.222.397 6.02-4.87 6.221-10.492 11.843-16.71 16.709-.795.623-1.752.951-2.768.951-1.228 0-2.383-.479-3.252-1.348l-14.104-14.104c-1.232-1.232-2.876-1.911-4.628-1.911-1.077 0-2.154.267-3.115.771-3.662 1.923-7.523 3.521-11.478 4.751-2.791.868-4.666 3.392-4.666 6.279v19.957c0 2.31-1.708 4.26-3.973 4.536-3.903.475-7.879.716-11.819.716s-7.917-.241-11.819-.716c-2.265-.276-3.973-2.226-3.973-4.536v-19.957c0-2.888-1.875-5.411-4.667-6.279-2.692-.837-5.334-1.858-7.906-3.022-15.558 19.721-24.844 44.62-24.844 71.69 0 63.978 51.864 115.842 115.842 115.842s115.841-51.864 115.841-115.841c0-62.654-49.742-113.682-111.887-115.768z" fill="#fff"/><g><path d="m98.753 362.375c0-13.038 2.159-25.57 6.13-37.264-2.674-.105-5.348-.31-7.988-.632-2.265-.276-3.973-2.226-3.973-4.536v-19.957c0-2.888-1.875-5.411-4.667-6.279-2.692-.837-5.334-1.857-7.905-3.022-15.558 19.721-24.844 44.62-24.844 71.689 0 63.978 51.864 115.842 115.842 115.842 7.391 0 14.617-.7 21.624-2.023-53.643-10.129-94.219-57.232-94.219-113.818z" fill="#eef5f6"/></g><g><path d="m139.215 423.994c-1.302 0-2.621-.339-3.822-1.052-3.562-2.114-4.735-6.716-2.621-10.278l32.126-54.119c2.097-3.534 6.649-4.722 10.207-2.662l39.173 22.68c3.585 2.076 4.808 6.664 2.733 10.249-2.076 3.585-6.665 4.808-10.249 2.733l-32.753-18.963-28.339 47.74c-1.4 2.361-3.895 3.672-6.455 3.672z" fill="#537983"/></g><path d="m203.023 243.163c-.712.448-1.551.712-2.449.712h-19.957c-2.888 0-5.411 1.875-6.279 4.667-.579 1.861-1.246 3.698-1.983 5.506 16.671.153 32.454 4.086 46.531 10.989l-.512.886c-2.071 3.587-.842 8.174 2.745 10.245 1.181.682 2.471 1.006 3.743 1.006 2.592 0 5.113-1.346 6.502-3.751l.502-.87c11.54 7.8 21.503 17.763 29.303 29.303l-.87.502c-3.587 2.071-4.816 6.658-2.745 10.245 1.389 2.406 3.91 3.751 6.502 3.751 1.272 0 2.562-.324 3.743-1.006l.886-.512c6 12.236 9.758 25.761 10.739 40.039h-20.995c-4.142 0-7.5 3.358-7.5 7.5s3.358 7.5 7.5 7.5h20.995c-.981 14.278-4.739 27.802-10.739 40.039l-.886-.512c-3.589-2.073-8.175-.842-10.245 2.745-2.071 3.587-.842 8.174 2.745 10.245l.87.502c-7.8 11.54-17.764 21.503-29.303 29.303l-.502-.87c-2.071-3.588-6.659-4.817-10.245-2.745-3.587 2.071-4.816 6.658-2.745 10.245l.512.886c-12.236 6-25.761 9.758-40.039 10.739v-20.779c0-4.142-3.358-7.5-7.5-7.5s-7.5 3.358-7.5 7.5v20.779c-14.278-.981-27.802-4.739-40.039-10.739l.512-.886c2.071-3.587.842-8.174-2.745-10.245-3.59-2.073-8.175-.842-10.245 2.745l-.502.87c-11.54-7.8-21.503-17.764-29.303-29.303l.87-.502c3.587-2.071 4.816-6.658 2.745-10.245s-6.658-4.817-10.245-2.745l-.886.512c-6-12.236-9.758-25.761-10.739-40.038h21.061c4.142 0 7.5-3.358 7.5-7.5s-3.358-7.5-7.5-7.5h-21.061c1.594-23.201 10.53-44.413 24.488-61.335-3.781-1.208-7.473-2.742-10.98-4.583-.961-.505-2.038-.771-3.115-.771-.28 0-.555.023-.829.058-15.579 20.651-24.829 46.331-24.829 74.132 0 68.011 55.331 123.342 123.342 123.342s123.342-55.331 123.342-123.342c.001-57.066-38.954-105.196-91.666-119.214z" fill="#d73d24"/></g><g><g><path d="m171.434 189.111 14.105-14.105c1.98-1.98 2.203-5.139.477-7.343-4.922-6.288-10.593-11.96-16.881-16.881-2.205-1.726-5.364-1.503-7.343.477l-14.105 14.105c-1.738 1.738-4.395 2.104-6.571.961-3.698-1.942-7.593-3.561-11.646-4.821-2.345-.729-3.963-2.868-3.963-5.324v-19.956c0-2.799-2.073-5.191-4.852-5.529-3.914-.476-7.898-.724-11.94-.724s-8.027.247-11.94.724c-2.779.338-4.852 2.73-4.852 5.529v19.956c0 2.456-1.618 4.595-3.963 5.324-4.053 1.26-7.948 2.878-11.646 4.821-2.176 1.143-4.833.776-6.571-.961l-14.105-14.105c-1.98-1.98-5.139-2.203-7.343-.477-6.288 4.922-11.959 10.593-16.881 16.881-1.726 2.205-1.503 5.364.477 7.343l14.105 14.105c1.738 1.738 2.104 4.395.961 6.571-1.942 3.698-3.561 7.593-4.821 11.646-.729 2.345-2.868 3.963-5.324 3.963h-19.957c-2.799 0-5.191 2.073-5.529 4.852-.477 3.914-.724 7.898-.724 11.94s.247 8.027.724 11.94c.338 2.779 2.73 4.852 5.529 4.852h19.956c2.456 0 4.595 1.618 5.324 3.963 1.26 4.053 2.879 7.948 4.821 11.646 1.143 2.176.776 4.833-.961 6.571l-14.105 14.105c-1.98 1.98-2.203 5.139-.477 7.343 4.922 6.288 10.593 11.96 16.881 16.881 2.205 1.726 5.364 1.503 7.343-.477l14.105-14.105c1.738-1.738 4.395-2.104 6.571-.961 3.698 1.943 7.593 3.561 11.646 4.821 2.345.729 3.963 2.868 3.963 5.324v19.956c0 2.799 2.073 5.191 4.852 5.529 3.914.476 7.898.724 11.94.724s8.027-.247 11.94-.724c2.779-.338 4.852-2.73 4.852-5.529v-19.956c0-2.456 1.618-4.595 3.963-5.324 4.053-1.26 7.948-2.878 11.646-4.821 2.176-1.143 4.833-.776 6.571.961l14.105 14.105c1.98 1.98 5.139 2.203 7.343.477 6.288-4.922 11.959-10.593 16.881-16.881 1.726-2.205 1.503-5.364-.477-7.343l-14.105-14.105c-1.738-1.738-2.104-4.395-.961-6.571 1.942-3.698 3.561-7.593 4.821-11.646.729-2.345 2.868-3.963 5.324-3.963h19.956c2.799 0 5.191-2.073 5.529-4.852.477-3.914.724-7.898.724-11.94s-.247-8.027-.724-11.94c-.338-2.779-2.73-4.852-5.529-4.852h-19.956c-2.456 0-4.595-1.618-5.324-3.963-1.26-4.053-2.879-7.948-4.821-11.646-1.143-2.176-.776-4.833.962-6.571z" fill="#7ca1b1"/></g><path d="m66.014 256.828c-5.548-8.215-8.791-18.108-8.791-28.745s3.243-20.53 8.791-28.745c9.665-25.912 32.008-45.645 59.492-51.651v-11.464c0-2.799-2.073-5.191-4.852-5.529-3.914-.476-7.898-.724-11.94-.724s-8.027.247-11.94.724c-2.779.338-4.852 2.73-4.852 5.529v19.956c0 2.456-1.618 4.595-3.963 5.324-4.053 1.26-7.948 2.878-11.646 4.821-2.176 1.143-4.833.776-6.571-.961l-14.105-14.105c-1.98-1.98-5.139-2.203-7.343-.477-6.288 4.922-11.96 10.593-16.881 16.881-1.726 2.205-1.503 5.364.477 7.343l14.105 14.105c1.738 1.738 2.104 4.395.961 6.571-1.943 3.698-3.561 7.593-4.821 11.646-.729 2.345-2.868 3.963-5.324 3.963h-19.956c-2.799 0-5.191 2.073-5.529 4.852-.476 3.914-.724 7.898-.724 11.94s.247 8.027.724 11.94c.338 2.779 2.73 4.852 5.529 4.852h19.956c2.456 0 4.595 1.618 5.324 3.963 1.26 4.053 2.878 7.948 4.821 11.646 1.143 2.176.776 4.833-.961 6.571l-14.105 14.106c-1.98 1.98-2.203 5.139-.477 7.343 4.922 6.288 10.593 11.959 16.881 16.881 2.205 1.726 5.364 1.503 7.343-.477l14.105-14.105c1.738-1.738 4.395-2.104 6.571-.961 3.698 1.943 7.593 3.561 11.646 4.821 2.345.729 3.963 2.868 3.963 5.324v19.956c0 2.799 2.073 5.191 4.852 5.529 3.914.477 7.898.724 11.94.724s8.026-.247 11.94-.724c2.779-.338 4.852-2.73 4.852-5.529v-11.464c-27.484-6.005-49.826-25.737-59.492-51.65z" fill="#678d98"/><g><circle cx="108.714" cy="228.083" fill="#3e5959" r="43.99"/></g><g><path d="m90.512 228.083c0-19.808 13.094-36.554 31.097-42.066-4.078-1.249-8.407-1.924-12.894-1.924-24.295 0-43.99 19.695-43.99 43.991 0 24.295 19.695 43.99 43.99 43.99 4.487 0 8.816-.676 12.894-1.924-18.004-5.512-31.097-22.259-31.097-42.067z" fill="#384949"/></g><g><path d="m108.714 279.574c-28.392 0-51.491-23.099-51.491-51.491s23.099-51.49 51.491-51.49 51.49 23.099 51.49 51.49c.001 28.392-23.098 51.491-51.49 51.491zm0-87.981c-20.121 0-36.491 16.37-36.491 36.49 0 20.121 16.37 36.491 36.491 36.491s36.49-16.37 36.49-36.491c.001-20.121-16.369-36.49-36.49-36.49z" fill="#8ebac5"/></g><g><circle cx="108.714" cy="228.083" fill="#fff" r="15.273"/></g></g></g></g><g><g><path d="m355.717 454.851c-1.919 0-3.839-.732-5.303-2.197-2.929-2.929-2.929-7.678 0-10.606l20.005-20.005-20.005-20.005c-2.929-2.929-2.929-7.678 0-10.606 2.929-2.929 7.678-2.929 10.606 0l25.308 25.309c2.929 2.929 2.929 7.678 0 10.606l-25.308 25.308c-1.464 1.463-3.384 2.196-5.303 2.196z" fill="#d73d24"/></g><g><path d="m409.497 454.851c-1.919 0-3.839-.732-5.303-2.197-2.929-2.929-2.929-7.678 0-10.606l20.005-20.005-20.005-20.005c-2.929-2.929-2.929-7.678 0-10.606 2.929-2.929 7.678-2.929 10.606 0l25.309 25.309c1.407 1.406 2.197 3.314 2.197 5.303s-.79 3.897-2.197 5.303l-25.309 25.307c-1.465 1.464-3.385 2.197-5.303 2.197z" fill="#ef4424"/></g><g><path d="m463.277 454.851c-1.919 0-3.839-.732-5.303-2.197-2.929-2.929-2.929-7.678 0-10.606l20.005-20.005-20.005-20.005c-2.929-2.929-2.929-7.678 0-10.606 2.929-2.929 7.678-2.929 10.606 0l25.308 25.309c2.929 2.929 2.929 7.678 0 10.606l-25.308 25.308c-1.464 1.463-3.384 2.196-5.303 2.196z" fill="#fd5426"/></g></g></g></svg>