<svg height="512" viewBox="0 0 64 64" width="512" xmlns="http://www.w3.org/2000/svg" xmlns:xlink="http://www.w3.org/1999/xlink"><linearGradient id="linear-gradient" gradientUnits="userSpaceOnUse" x1="3.4" x2="60.6" y1="32" y2="32"><stop offset="0" stop-color="#5bb4f6"/><stop offset=".61" stop-color="#2191e5"/><stop offset="1" stop-color="#007edb"/></linearGradient><g id="Layer_86" data-name="Layer 86"><path d="m50 3.4h-36a10.62 10.62 0 0 0 -10.6 10.6v36a10.62 10.62 0 0 0 10.6 10.6h36a10.62 10.62 0 0 0 10.6-10.6v-36a10.62 10.62 0 0 0 -10.6-10.6zm1.92 39.6a3.79 3.79 0 0 1 -4.72 5.94l-11.41-9.08v11.41a3.79 3.79 0 1 1 -7.58 0v-11.41l-11.41 9.08a3.79 3.79 0 0 1 -4.72-5.94l13.83-11-13.83-11a3.79 3.79 0 0 1 4.72-5.94l11.41 9.08v-11.41a3.79 3.79 0 1 1 7.58 0v11.41l11.41-9.08a3.79 3.79 0 0 1 4.72 5.94l-13.83 11z" fill="url(#linear-gradient)"/></g></svg>