<svg height="512" viewBox="0 0 512 512" width="512" xmlns="http://www.w3.org/2000/svg" xmlns:xlink="http://www.w3.org/1999/xlink"><linearGradient id="linear-gradient" gradientUnits="userSpaceOnUse" x1="92.771" x2="419.228" y1="92.772" y2="419.229"><stop offset="0" stop-color="#2d00f7"/><stop offset=".052" stop-color="#3b00ef"/><stop offset=".305" stop-color="#7c00cb"/><stop offset=".536" stop-color="#af00af"/><stop offset=".736" stop-color="#d3009a"/><stop offset=".897" stop-color="#ea008e"/><stop offset="1" stop-color="#f20089"/></linearGradient><g id="loop"><path d="m12.719 300.573c1.2 40.049 25.017 74.283 62.151 89.343a100.836 100.836 0 0 0 37.944 7.5 98.559 98.559 0 0 0 68.905-28.316l69.506-67.427a6.859 6.859 0 0 1 9.55 0l69.505 67.427a98.563 98.563 0 0 0 68.906 28.316 100.8 100.8 0 0 0 37.945-7.5c37.134-15.06 60.948-49.294 62.15-89.342.887-29.576.887-59.569 0-89.145-1.2-40.048-25.017-74.282-62.15-89.342-34.3-13.909-71.834-8.164-100.033 14.772a6.856 6.856 0 0 1 -9.18-.458l-8.146-8.147a6.858 6.858 0 0 0 -11.684 4.3l-6.141 75.746a6.858 6.858 0 0 0 7.389 7.389l75.748-6.14a6.858 6.858 0 0 0 4.3-11.684l-9.238-9.238a6.843 6.843 0 0 1 1.7-10.944 40.875 40.875 0 0 1 58.554 35.517c.853 28.4.853 57.207 0 85.611a40.745 40.745 0 0 1 -69.1 28.007l-94.79-91.959-94.79-91.959c-28.766-27.9-69.708-35.882-106.85-20.819s-60.948 49.294-62.151 89.342c-.887 29.577-.887 59.577 0 89.15zm58.881-87.373a39.729 39.729 0 0 1 25.41-36.523 39.749 39.749 0 0 1 43.691 8.511l67.922 65.891a6.857 6.857 0 0 1 0 9.844l-67.923 65.89a39.753 39.753 0 0 1 -43.691 8.51 39.728 39.728 0 0 1 -25.409-36.517c-.849-28.406-.849-57.206 0-85.606z" fill="url(#linear-gradient)"/></g></svg>